#!OML:ASF C:\ViconDB\ViconDB\414\Spring2016\041811\Spring2016.ASF
:FULLY-SPECIFIED
:DEGREES
231
root 11.8298 17.6134 18.829 -54.262 -87.0629 57.0065
lowerback 8.12871 0.280922 -3.57434
upperback 0.826463 0.115902 2.40863
thorax -3.71662 0.115153 4.51229
lowerneck 3.06185 -12.1423 -24.5755
upperneck 17.913 -25.0928 30.9404
head 13.2656 -12.7057 12.7482
rclavicle 7.95139e-016 3.4191e-014
rhumerus -4.75231 -28.6948 -3.97476
rradius 67.7282
rwrist 16.2897
rhand -54.8477 -22.5357
rfingers 7.12502
rthumb -27.2345 -50.5895
lclavicle 7.95139e-016 3.4191e-014
lhumerus -11.9821 15.1927 0.937627
lradius 45.3907
lwrist 5.89968
lhand -44.3556 35.0942
lfingers 7.12502
lthumb -17.1635 64.3561
rfemur 171.497 43.5746 -177.405
rtibia 33.7345
rfoot -21.4924 -59.6161
rtoes 3.57846
lfemur -19.9816 -3.67478 -11.9067
ltibia 43.8208
lfoot -29.7862 6.94701
ltoes -14.2163
232
root 11.8445 17.6108 18.8062 -58.3495 -87.1973 61.1901
lowerback 8.38709 0.327504 -3.30264
upperback 0.850461 0.198472 2.57248
thorax -3.84462 0.153912 4.52223
lowerneck 3.24648 -12.2007 -24.6043
upperneck 17.5538 -25.2403 31.2836
head 13.2227 -12.7912 12.866
rclavicle -1.98785e-016 -1.66979e-014
rhumerus -4.80455 -28.7943 -4.15799
rradius 67.5893
rwrist 16.4152
rhand -54.7009 -22.531
rfingers 7.12502
rthumb -27.094 -50.6068
lclavicle -1.98785e-016 -1.66979e-014
lhumerus -11.7691 15.3762 0.75342
lradius 45.3806
lwrist 6.04974
lhand -44.3233 34.8818
lfingers 7.12502
lthumb -17.1324 64.1464
rfemur 171.845 43.9905 -177.002
rtibia 34.0092
rfoot -22.1142 -60.2247
rtoes 7.28114
lfemur -20.0466 -3.50277 -11.7982
ltibia 43.7566
lfoot -29.717 7.0111
ltoes -14.3229
233
root 11.8584 17.6133 18.7811 -64.345 -87.148 67.3002
lowerback 8.65576 0.369359 -3.20244
upperback 0.85465 0.260435 2.72839
thorax -3.99744 0.186153 4.624
lowerneck 3.34552 -12.3448 -24.6335
upperneck 17.4035 -25.4917 31.3762
head 13.2653 -12.9113 12.8401
rclavicle -9.93923e-016 -7.15625e-015
rhumerus -4.82008 -28.957 -4.35925
rradius 67.4531
rwrist 16.651
rhand -54.8723 -22.3771
rfingers 7.12502
rthumb -27.258 -50.4273
lclavicle -9.93923e-016 -7.15625e-015
lhumerus -11.6997 15.395 0.510861
lradius 45.4586
lwrist 6.14826
lhand -44.2293 34.7408
lfingers 7.12502
lthumb -17.042 64.0132
rfemur 172.18 43.7468 -176.966
rtibia 34.2447
rfoot -22.1791 -60.5116
rtoes 9.45043
lfemur -20.0891 -3.43497 -11.8968
ltibia 43.6307
lfoot -29.6651 7.18844
ltoes -14.3686
234
root 11.8721 17.6164 18.7559 -70.2559 -87.1366 73.3317
lowerback 8.92743 0.402236 -2.98282
upperback 0.932838 0.32036 2.87894
thorax -4.07383 0.211284 4.65159
lowerneck 3.28855 -12.4945 -24.642
upperneck 17.1062 -25.7035 31.6089
head 13.2971 -12.9962 12.8625
rclavicle 2.5842e-015 -3.97569e-015
rhumerus -4.78058 -29.1973 -4.66934
rradius 67.3303
rwrist 16.9199
rhand -54.8774 -22.3518
rfingers 7.12502
rthumb -27.2629 -50.4011
lclavicle 2.5842e-015 -3.97569e-015
lhumerus -11.5955 15.5716 0.227921
lradius 45.4467
lwrist 5.94412
lhand -44.1876 34.9588
lfingers 7.12502
lthumb -17.0018 64.2347
rfemur 172.761 44.1083 -176.681
rtibia 34.3974
rfoot -23.6421 -60.9064
rtoes 10.55
lfemur -20.0983 -3.43346 -11.9354
ltibia 43.4658
lfoot -29.6292 7.46316
ltoes -14.4994
235
root 11.8839 17.6198 18.7276 -76.5093 -87.1043 79.7068
lowerback 9.23112 0.476253 -2.80478
upperback 0.942061 0.435298 3.08874
thorax -4.24647 0.268214 4.75914
lowerneck 3.45818 -12.5906 -24.7355
upperneck 16.7438 -25.8726 31.8842
head 13.2625 -13.0912 12.947
rclavicle 1.19271e-015 -2.06736e-014
rhumerus -4.78762 -29.2738 -4.82289
rradius 67.1602
rwrist 16.9621
rhand -54.9203 -22.2871
rfingers 7.12502
rthumb -27.304 -50.33
lclavicle 1.19271e-015 -2.06736e-014
lhumerus -11.4054 15.6442 0.108882
lradius 45.3733
lwrist 5.91927
lhand -44.2336 35.3521
lfingers 7.12502
lthumb -17.046 64.6242
rfemur 173.422 44.4082 -176.393
rtibia 34.4914
rfoot -24.4232 -61.0913
rtoes 11.7123
lfemur -20.0642 -3.46201 -11.9554
ltibia 43.2278
lfoot -29.7382 7.75966
ltoes -14.209
236
root 11.8909 17.6288 18.698 -81.8651 -86.9206 85.1858
lowerback 9.42646 0.488814 -2.63229
upperback 0.981874 0.4677 3.21847
thorax -4.31728 0.281085 4.79464
lowerneck 3.41918 -12.7326 -24.6958
upperneck 16.6085 -26.0904 31.9705
head 13.3156 -13.177 12.902
rclavicle -1.98785e-016 -4.92986e-014
rhumerus -4.73568 -29.4386 -5.15052
rradius 66.9844
rwrist 17.0089
rhand -54.9926 -22.5373
rfingers 7.12502
rthumb -27.3731 -50.5693
lclavicle -1.98785e-016 -4.92986e-014
lhumerus -11.2375 15.9404 -0.151116
lradius 45.2465
lwrist 5.83816
lhand -44.1626 34.7575
lfingers 7.12502
lthumb -16.9777 64.0355
rfemur 174.135 44.9767 -176.273
rtibia 34.5137
rfoot -25.4387 -60.9785
rtoes 11.7229
lfemur -20.0228 -3.49797 -12.1337
ltibia 42.9387
lfoot -29.5368 8.28364
ltoes -14.7785
237
root 11.8963 17.6433 18.6656 -85.9974 -86.7565 89.4868
lowerback 9.6548 0.499112 -2.48107
upperback 0.973246 0.499356 3.4373
thorax -4.45826 0.296625 4.93763
lowerneck 3.27374 -12.8829 -24.7676
upperneck 16.6079 -26.3147 31.9681
head 13.448 -13.2604 12.8358
rclavicle -7.95139e-016 0
rhumerus -4.62453 -29.5275 -5.3736
rradius 66.7759
rwrist 17.1136
rhand -54.8849 -22.4685
rfingers 7.12502
rthumb -27.27 -50.5168
lclavicle -7.95139e-016 0
lhumerus -11.1111 16.1972 -0.278587
lradius 45.138
lwrist 5.44809
lhand -44.1791 35.0007
lfingers 7.12502
lthumb -16.9936 64.2774
rfemur 174.868 44.8915 -176.295
rtibia 34.4649
rfoot -24.9515 -60.3787
rtoes 10.3641
lfemur -19.9604 -3.4221 -12.2304
ltibia 42.5554
lfoot -29.2998 8.57418
ltoes -15.0784
238
root 11.8996 17.6592 18.6298 -90.3501 -86.6348 93.9683
lowerback 9.94065 0.508012 -2.14625
upperback 0.875343 0.550645 3.58965
thorax -4.7246 0.322299 4.90369
lowerneck 3.63836 -12.9056 -24.8725
upperneck 16.3066 -26.4457 32.2302
head 13.3826 -13.3643 12.9517
rclavicle -1.39149e-015 -1.59028e-015
rhumerus -4.68499 -29.416 -5.64527
rradius 66.6079
rwrist 17.0157
rhand -55.0516 -23.0154
rfingers 7.12502
rthumb -27.4295 -51.0385
lclavicle -1.39149e-015 -1.59028e-015
lhumerus -10.9179 16.1698 -0.549649
lradius 45.1215
lwrist 5.52255
lhand -44.2419 34.8185
lfingers 7.12502
lthumb -17.0541 64.0899
rfemur 175.579 44.6946 -176.364
rtibia 34.3559
rfoot -23.9128 -59.5435
rtoes 9.39935
lfemur -19.7959 -3.54825 -12.2576
ltibia 42.1181
lfoot -29.1795 9.01312
ltoes -15.2404
